<svg width="70" height="70" viewBox="0 0 70 70" fill="none" xmlns="http://www.w3.org/2000/svg">
<circle cx="35" cy="35" r="35" fill="#F36767"/>
<path d="M14.781 17.3747C14.515 17.0437 14.067 16.9157 13.669 17.0567C13.268 17.1967 13 17.5747 13 17.9997V35.9997C13 36.2317 13.081 36.4567 13.228 36.6357L27.228 53.6357C27.418 53.8657 27.701 53.9997 28 53.9997H42C42.384 53.9997 42.735 53.7787 42.901 53.4337C43.068 53.0867 43.021 52.6757 42.78 52.3747L14.781 17.3747Z" fill="black"/>
<path d="M56.336 18.0587C55.94 17.9127 55.494 18.0387 55.226 18.3677L37.226 40.3677C36.981 40.6667 36.931 41.0797 37.096 41.4297C37.262 41.7767 37.614 41.9997 38 41.9997H52C52.304 41.9997 52.591 41.8617 52.781 41.6247L56.781 36.6247C56.923 36.4467 57 36.2277 57 35.9997V18.9997C57 18.5767 56.734 18.1997 56.336 18.0587Z" fill="black"/>
</svg>
